<svg xmlns="http://www.w3.org/2000/svg" viewBox="0 0 936.99 917.98"><defs><style>.cls-1{fill:#f1f1f2;}.cls-2{fill:#09455d;}.cls-3{fill:#07384d;}.cls-4{fill:#edeff0;}.cls-5{fill:#f26f25;}</style></defs><g id="Layer_2" data-name="Layer 2"><g id="Layer_1-2" data-name="Layer 1"><path class="cls-1" d="M937,126.72V781.28c-2.44.39-2,2.3-2,3.89a78.34,78.34,0,0,1-.1,8c-2.44,19.36-7.65,37.83-17.34,55-18.1,32-44.11,54.59-78.78,67.15-1.42.51-3.52.39-3.68,2.72H92.9c-.3-2.36-2.32-2.49-4-3.14-3.86-1.5-7.8-2.88-11.53-4.67a149.64,149.64,0,0,1-72-73.86c-1.5-3.43-1.57-7.84-5.36-10.13V80.82c2.35-.29,2.49-2.29,3.13-4a143.78,143.78,0,0,1,33.49-51A147.22,147.22,0,0,1,67,3c1.25-.72,2.88-1.08,2.94-3H859.07c0,1.39,1,1.94,2.07,2.54A155.4,155.4,0,0,1,897.72,32,138.31,138.31,0,0,1,920,64.15c9.1,18.44,15,37.84,15,58.68C935,124.42,934.55,126.33,937,126.72ZM838.21,844.19c7-4.85,12.92-11,18.6-17.26,10.56-11.72,17.09-25.37,17.14-41.21.24-66.61.09-133.21.16-199.82,0-2.47-.49-4.48-2.22-6.19.05-2,.16-4,.16-6q0-222,.07-443.95c0-20.82-6.76-39-20.23-54.43C835.6,56.72,814.32,47.06,789.73,47q-325.1-.36-650.19-.18a75.53,75.53,0,0,0-13.72,1.29c-21.39,4-39.35,14.19-52.48,31.84-10.1,13.57-16.4,28.67-16.4,45.91q0,326.49,0,653a71.69,71.69,0,0,0,.93,14.24c4.34,21.71,15.3,39,33.24,52.12,15.95,11.65,34.12,15.8,53.3,15.81q249.95.19,499.88.07c1.66,0,3.32-.1,5-.16,1.83.06,3.65.16,5.48.16,45.37,0,90.74-.33,136.11.22,12.67.16,23.49-3.85,34.25-9.36.87.2,1.72.35,2.08-.8a2.81,2.81,0,0,0,.9-.21c.7.2.94-.24,1.1-.79a2.81,2.81,0,0,0,.9-.21c.7.2.94-.23,1.1-.79l1.9-1.21c.69.2.94-.23,1.1-.78a2.48,2.48,0,0,0,.89-.22c.7.2.95-.23,1.1-.78l.93-.93Z"/><path class="cls-2" d="M649.28,860.94c-1.66.06-3.32.16-5,.16q-249.93,0-499.88-.07c-19.18,0-37.35-4.16-53.3-15.81-17.94-13.1-28.9-30.41-33.24-52.12A71.69,71.69,0,0,1,57,778.86q0-326.47,0-653c0-17.24,6.3-32.34,16.4-45.91,13.13-17.65,31.09-27.86,52.48-31.84a75.53,75.53,0,0,1,13.72-1.29q325.1.06,650.19.18c24.59,0,45.87,9.68,62.16,28.32,13.47,15.41,20.25,33.61,20.23,54.43q-.18,222-.07,444c0,2-.11,4-.16,6-11.17-10.38-22.5-20.59-33.47-31.18s-22.31-20.82-33.33-31.36c-18-17.2-36.22-34.11-54.29-51.2Q734,450.07,717.08,434.3c-19-17.6-37.63-35.52-56.45-53.28-10.73-10.12-21.69-20-32.25-30.32-18.41-17.95-37.33-35.35-56.06-52.95C563,289,554,280,544.62,271.24c-2.1-2-4.19-4.29-7.34-4.8l-8.88-8.88c-.71-3.25-2.53-5.17-6-5.06l0,0c-1-4.41-5.29-6.13-7.73-9.35-2.78-3.68-4.73-2.63-6.19,1.11-2.32-1.1-4.63-2.22-7-3.3-18.93-8.79-38.94-10.74-59.16-7.22C416.88,238.21,396,251.07,380,271.5c-13.92,17.71-20.48,38.06-21.25,60.26a94.29,94.29,0,0,0,8.47,42.41c6.25,13.83,14.79,26,26.62,36,5.66,4.75,12.26,8,17.79,12.83-.19,1.86-1.34,3.27-2.18,4.86-2.28,4.3-5.31,8.29-5.91,13.34-1.79-.73-3.85-1.12-5.32-2.26-3.36-2.59-5.77-1.91-8.27,1.22-2.66,3.33-5.82,6.27-8.48,9.6C365,470.32,351.86,492.87,341,516.89c-11.89,26.26-20.09,53.67-27.24,81.47-1.56,6.09-1.61,11.54,4.48,15.46a58.71,58.71,0,0,1,6.41,5.32A216.21,216.21,0,0,0,368,648.61c8.81,4.49,17.73,8.74,26.6,13.1a29.5,29.5,0,0,0,3.07,3.24q45.36,35.41,90.76,70.76,42.48,33,85,66.06Q611.37,831.32,649.28,860.94Z"/><path class="cls-3" d="M537.28,266.44c3.15.51,5.24,2.84,7.34,4.8C554,280,563,289,572.32,297.75c18.73,17.6,37.65,35,56.06,52.95C638.94,361,649.9,370.9,660.63,381c18.82,17.76,37.48,35.68,56.45,53.28Q734,450,750.8,466c18.07,17.09,36.31,34,54.29,51.2,11,10.54,22.35,20.76,33.33,31.36s22.3,20.8,33.47,31.18c1.73,1.71,2.22,3.72,2.22,6.19-.07,66.61.08,133.21-.16,199.82-.05,15.84-6.58,29.49-17.14,41.21-5.68,6.3-11.55,12.41-18.6,17.26l-1.09,1-.93.93-1.1.78a2.48,2.48,0,0,1-.89.22l-1.1.78-1.9,1.21-1.1.79a2.81,2.81,0,0,1-.9.21l-1.1.79a2.81,2.81,0,0,1-.9.21l-2.08.8c-10.76,5.51-21.58,9.52-34.25,9.36-45.37-.55-90.74-.21-136.11-.22-1.83,0-3.65-.1-5.48-.16q-37.93-29.6-75.88-59.17-42.46-33.06-85-66.06Q443,700.37,397.65,665a29.5,29.5,0,0,1-3.07-3.24,6,6,0,0,1,3.31.46,185.22,185.22,0,0,0,47.58,11.14c10.57,1,21.2,1.53,32,.52a226,226,0,0,0,43.94-8.23c17.16-5.13,33.07-12.94,48.48-21.91a277.25,277.25,0,0,0,47.56-35.63c2.23-2,3.3-3.76,2-7.14-4.31-10.94-8.11-22.06-12.06-33.14-12.46-35-26.58-69.23-45.76-101.2-6.26-10.43-13.41-20.12-22.48-28.29-2.14-1.93-4-2.9-7.22-.66-5.13,3.55-10.95,6.09-16.78,8.56a123.8,123.8,0,0,1-37.93,9.58c-12.44,1-25.11,1-37.45-1.84-12.54-2.9-25-6.23-36.25-12.77.6-5.05,3.63-9,5.91-13.34.84-1.59,2-3,2.18-4.86a4.67,4.67,0,0,1,1.47.25,102.16,102.16,0,0,0,124.85-24.3,98.24,98.24,0,0,0,19.7-36.75c4.29-14.7,4.62-29.39,2.78-44.34-1.54-12.46-5.94-23.91-11.88-34.89C545.33,277,540.51,272.28,537.28,266.44Z"/><path class="cls-2" d="M825.12,852l2.08-.8C826.84,852.31,826,852.16,825.12,852Z"/><path class="cls-2" d="M837.12,845.24l1.09-1Z"/><path class="cls-2" d="M835.09,847l1.1-.78C836,846.72,835.79,847.15,835.09,847Z"/><path class="cls-2" d="M833.1,848l1.1-.78C834,847.72,833.79,848.15,833.1,848Z"/><path class="cls-2" d="M830.1,850l1.1-.79C831,849.72,830.8,850.15,830.1,850Z"/><path class="cls-2" d="M828.1,851l1.1-.79C829,850.71,828.8,851.15,828.1,851Z"/><path class="cls-4" d="M403.51,441.16c11.27,6.54,23.71,9.87,36.25,12.77,12.34,2.85,25,2.87,37.45,1.84a123.8,123.8,0,0,0,37.93-9.58c5.83-2.47,11.65-5,16.78-8.56,3.24-2.24,5.08-1.27,7.22.66,9.07,8.17,16.22,17.86,22.48,28.29,19.18,32,33.3,66.21,45.76,101.2,4,11.08,7.75,22.2,12.06,33.14,1.33,3.38.26,5.09-2,7.14a277.25,277.25,0,0,1-47.56,35.63c-15.41,9-31.32,16.78-48.48,21.91a226,226,0,0,1-43.94,8.23c-10.82,1-21.45.45-32-.52a185.22,185.22,0,0,1-47.58-11.14,6,6,0,0,0-3.31-.46c-8.87-4.36-17.79-8.61-26.6-13.1a216.21,216.21,0,0,1-43.33-29.47,58.71,58.71,0,0,0-6.41-5.32c-6.09-3.92-6-9.37-4.48-15.46,7.15-27.8,15.35-55.21,27.24-81.47,10.86-24,24-46.57,40.44-67.17,2.66-3.33,5.82-6.27,8.48-9.6,2.5-3.13,4.91-3.81,8.27-1.22C399.66,440,401.72,440.43,403.51,441.16Z"/><path class="cls-5" d="M537.28,266.44c3.23,5.84,8.05,10.58,11.24,16.49,5.94,11,10.34,22.43,11.88,34.89,1.84,14.95,1.51,29.64-2.78,44.34a98.24,98.24,0,0,1-19.7,36.75,101.76,101.76,0,0,1-124.85,24.3,4.67,4.67,0,0,0-1.47-.25c-5.53-4.82-12.13-8.08-17.79-12.83-11.83-9.95-20.37-22.13-26.62-36a94.29,94.29,0,0,1-8.47-42.41c.77-22.2,7.33-42.55,21.25-60.26,16-20.43,36.91-33.29,62.37-37.72,20.22-3.52,40.23-1.57,59.16,7.22,2.34,1.08,4.65,2.2,7,3.3l13.92,8.24,0,0c1.76,2,3.07,4.52,6,5.06Z"/><path class="cls-3" d="M522.39,252.54l-13.92-8.24c1.46-3.74,3.41-4.79,6.19-1.11C517.1,246.41,521.38,248.13,522.39,252.54Z"/><path class="cls-3" d="M528.4,257.56c-3-.54-4.29-3.07-6-5.06C525.87,252.39,527.69,254.31,528.4,257.56Z"/></g></g></svg>