<svg xmlns="http://www.w3.org/2000/svg" viewBox="0 0 936.99 936.99"><defs><style>.cls-1{fill:#f1f1f2;}.cls-2{fill:#09455d;}.cls-3{fill:#07384d;}.cls-4{fill:#edeff0;}.cls-5{fill:#f26f25;}</style></defs><g id="Layer_2" data-name="Layer 2"><g id="Layer_1-2" data-name="Layer 1"><path class="cls-1" d="M822.11,937H125.86c-.25-2.14-1.9-1.8-3.37-2A134.92,134.92,0,0,1,97,928.45a148.21,148.21,0,0,1-60.19-40.91C18.46,866.87,7.18,843,2,816c-.26-1.38-.25-2.68-2-2.87V113.88c2.13-.26,1.78-1.9,2-3.37C7,81.81,20,57,39.69,35.85a139.84,139.84,0,0,1,44.45-32C86,3,88.51,2.74,88.9,0H859.07c.4,2.74,2.95,3,4.77,3.82a144,144,0,0,1,40.23,27.82,136.63,136.63,0,0,1,29.09,40.52c.85,1.81,1.09,4.36,3.83,4.76V850.08c-2.35.21-2.66,2.32-3.39,3.87-7.88,16.65-19,30.82-32.34,43.46C879.65,917.84,854.12,930,825,935,823.59,935.2,822.3,935.22,822.11,937Zm31.07-81.88c6.49-6.11,13-12.16,18.6-19.17,8.65-10.83,14.15-23,14.17-36.89q.25-164.88.14-329.74a12.43,12.43,0,0,0-2.21-7.83c.06-2,.16-4,.16-6q0-161.05.07-322.11a73.64,73.64,0,0,0-3.92-23,79.16,79.16,0,0,0-25.77-37.66c-13.57-11.09-28.93-18.63-46.5-18.65q-333.1-.33-666.21-.13a52.12,52.12,0,0,0-9.27.83c-20,3.54-36.32,13-49.55,28.49C69,99.58,63,118.64,63,139.49q-.21,323.86,0,647.73a92.31,92.31,0,0,0,4.65,29.3,80.31,80.31,0,0,0,18.23,30.16c17.44,18.41,38.72,26.52,64,26.48q208.26-.31,416.5-.11c2,0,4-.1,6-.16s4,.16,6,.16c75.17,0,150.33-.2,225.5.21,12.64.07,23.61-3.42,34.26-9.36.87.2,1.72.35,2.08-.8a2.81,2.81,0,0,0,.9-.21c.7.2.94-.24,1.1-.79a2.81,2.81,0,0,0,.9-.21c.7.2.94-.23,1.1-.79l1.9-1.21c.69.2.94-.23,1.1-.79l1.89-1.21c.7.2.95-.23,1.1-.78l1.9-1.22C852.78,856.09,853,855.66,853.18,855.11Z"/><path class="cls-2" d="M572.37,872.89c-2,.06-4,.16-6,.16q-208.24,0-416.5.11c-25.26,0-46.54-8.07-64-26.48a80.31,80.31,0,0,1-18.23-30.16A92.31,92.31,0,0,1,63,787.22q-.2-323.87,0-647.73c0-20.85,6-39.91,19.87-56.21,13.23-15.48,29.54-25,49.55-28.49a52.12,52.12,0,0,1,9.27-.83q333.1,0,666.21.13c17.57,0,32.93,7.56,46.5,18.65a79.16,79.16,0,0,1,25.77,37.66,73.64,73.64,0,0,1,3.92,23Q884,294.45,884,455.5c0,2,.12,6.49.07,8.49-7.23-10.09-14.7-22.69-21.93-32.79l-68.55-95.74q-16.5-23-33-46c-.79-1.09-1.05-3.78-3.46-1.64-6-10.36-12.52-20.4-21.69-28.12-8.55-7.22-17.84-13.59-27-20.13-16.66-12-34.4-22.22-53.94-28.48-19.88-6.38-40.36-9.11-61.45-6.46a198.66,198.66,0,0,0-33.25,7c-16,4.88-31,12.08-45.58,20.25-6.62,3.72-13,8-19.34,12.12-2.43,1.58-4.39,3.11-.8,6.14,4.66,3.92,8.41,8.84,12.63,13.25,16.52,17.29,33.63,34,50,51.41,7.65,8.11,15.49,16.16,19.74,27.07,5.66,14.51,6.06,28.78-.75,42.69-8,16.4-21.33,28-37,36.8-16.82,9.43-34.19,10.52-51.8,1.45-8.23-4.24-13.78-11.54-20.78-17.16-2.37-1.9-3.3-2.06-5.49.08-11.27,11-22.29,22.28-33.74,33.12-25.48,24.1-49.24,49.94-75,73.82-9.76,9-18.89,18.77-28.31,28.19-14.46,14.46-13.4,34.87,2.36,47.52A31.77,31.77,0,0,0,363.78,590c10.38-7,19-15.78,27.72-24.35,39.54-38.85,78.55-78.24,117.73-117.46,1.81-1.82,3.45-3.66,6.07-1.31,6.49,5.82,13,11.68,19.5,17.44,1.48,1.3,1.33,2.08,0,3.36-4.91,4.65-9.87,9.28-14.77,13.94-13.95,13.26-27.23,27.23-41.42,40.26-9.65,8.85-18.43,18.59-28.2,27.37-12.71,11.4-24,24.29-36.78,35.72-8.54,7.65-16.33,16.15-24.45,24.27-7,7-10.06,23.55-5.36,32.4,8.93,16.86,30.8,27.87,51.52,11.51,14.06-11.11,26.29-24.12,39-36.53,35.91-34.95,71.08-70.64,106.38-106.21,3.38-3.39,5.48-2.9,8.3.12a71.7,71.7,0,0,0,5.44,4.84,10.55,10.55,0,0,0-1.83,1.61c-13.74,19.07-27.57,38.08-41.07,57.32-2.67,3.81-6.84,6.92-7.11,12.19-9.59,9.84-19.16,19.66-29.38,28.88-12.31,11.09-23.27,23.61-35.67,34.67-8.8,7.84-16.75,16.65-25.17,24.93a18.31,18.31,0,0,0-4.72,7.85c-3.72,12-3.36,23.37,5,33.55a15.78,15.78,0,0,0,1.3,2.6q28.17,37.18,56.41,74.33c12.12,15.93,24.38,31.76,36.48,47.71C556.7,851.57,564.49,862.27,572.37,872.89ZM231.1,500.14l1.31,1c.53-.81.23-1.35-.58-1.72-.31-1.77-.34-3.55-.66-5.34-1-5.78-.76-11.15,4.17-15.83,14.95-14.17,29.49-28.76,44.29-43.08,9.78-9.46,19.33-19.14,29.2-28.52,23.5-22.32,46.27-45.41,69.46-68.05,2.57-2.51,2-4.08.23-6.57-11.15-15.32-22.13-30.75-33.21-46.11-1.54-2.13-1.95-3.75.35-5.84,3.57-3.22,6.78-6.86,10.23-10.42,1,.9,1.69,1.55,2.38,2.23,38.88,38.28,76.73,77.58,116.08,115.39,8.85,8.51,19.16,13,30.35,16.14a48.34,48.34,0,0,0,21.64.68c14.51-2.59,24.35-11.63,31.92-23.78,8.15-13.09,6.71-33-3.62-45-9.93-11.58-20.86-22.21-31.49-33.09-24.38-25-48.65-50.1-74.46-73.64-4.92-4.48-10.1-8.87-16.22-11.81-16-7.7-33.22-10.6-50.69-11.87a212.42,212.42,0,0,0-33.56-.12c-4.76.41-9.59.34-14.28,1.12-18,3-35.85,6.81-52.79,13.89-24.81,10.38-47.81,23.4-66,43.92-14.51,16.41-23.58,35.49-29.37,56.34-3.11,11.2-4.85,22.61-6.29,34.16a203.24,203.24,0,0,0-1.26,26.1c0,12.57.11,25.38,2.63,37.85,1.39,6.88,1.46,14,6.12,20.24C202,458.73,216.45,479.52,231.1,500.14ZM444.52,387.93c-6-5.32-12-10.73-18.14-15.91-9.61-8.12-19.5-15.92-28.94-24.22-2.88-2.53-4.4-2.41-6.82.2-8.55,9.24-17.55,18.05-26.29,27.1-29.19,30.24-59,59.88-88.5,89.81-7,7.06-13.74,14.33-20.56,21.54a9.27,9.27,0,0,0-1.84,2.83c-7,17.6-5.54,32.63,13,43,9.15,5.13,18.59,5.84,28.44,1.19,11.33-5.35,19.46-14.58,28-23,40.49-40.11,80.44-80.78,120.57-121.25C443.73,388.87,444,388.47,444.52,387.93Z"/><path class="cls-3" d="M756.7,286.92c2.41-2.13,3.44,1.16,4.23,2.25,11,15.32,21.27,30.06,32.26,45.41q34.29,47.87,68.56,95.74,10.83,15.15,21.7,30.28a12.42,12.42,0,0,1,2.21,7.82q-.09,164.88-.15,329.74c0,13.86-5.51,26.06-14.17,36.9-5.59,7-12.11,13.06-18.6,19.16l-1.09.79-1.9,1.21-1.1.79-1.9,1.21-1.1.79-1.9,1.21-1.09.78a2.58,2.58,0,0,1-.9.22l-1.1.78a2.58,2.58,0,0,1-.9.22l-2.09.8c-10.65,5.93-23.8,10.56-36.45,10.49-75.16-.41-150.33-.2-225.5-.21-2,0-1.79-1.24-3.78-1.29-7.88-10.63-15.68-21.32-23.67-31.86-12.09-16-24.35-31.78-36.48-47.71q-28.26-37.12-56.4-74.33a15.43,15.43,0,0,1-1.31-2.6c3.93.89,6.39,4.14,9.68,6.08,5.31,3.13,11.08,5.12,17.1,4.57,9-.83,16.63-5.43,23.1-11.39,14.24-13.11,28.33-26.39,42.07-40q54.19-53.81,108.05-108a28.84,28.84,0,0,1,2.84-2.8c13-9.78,24.93-20.82,36.73-31.94,19.19-18.08,37.28-37.26,52.76-58.69,8.91-12.32,17-25.13,22.4-39.52,6.79-18.17,8.22-37.22,8.65-56.21a192.69,192.69,0,0,0-3.57-39.53A182.21,182.21,0,0,0,756.7,286.92Z"/><path class="cls-2" d="M838.11,863.9l2.08-.8C839.83,864.25,839,864.1,838.11,863.9Z"/><path class="cls-2" d="M852.08,855.89l1.1-.78C853,855.66,852.78,856.09,852.08,855.89Z"/><path class="cls-2" d="M849.08,857.89l1.1-.78C850,857.66,849.78,858.09,849.08,857.89Z"/><path class="cls-2" d="M846.09,859.89l1.1-.79C847,859.66,846.78,860.09,846.09,859.89Z"/><path class="cls-2" d="M843.09,861.89l1.1-.79C844,861.66,843.79,862.09,843.09,861.89Z"/><path class="cls-2" d="M841.09,862.89l1.1-.79C842,862.65,841.79,863.09,841.09,862.89Z"/><path class="cls-4" d="M757.14,287.81A182.46,182.46,0,0,1,774.33,339a192.67,192.67,0,0,1,3.56,39.53c-.42,19-1.86,38.05-8.65,56.21-5.38,14.39-13.49,27.21-22.39,39.53-15.48,21.42-33.58,40.6-52.77,58.69-11.8,11.11-23.73,22.16-36.73,31.93a30,30,0,0,0-2.83,2.81q-54,54-108.06,108c-13.73,13.63-27.83,26.92-42.06,40-6.48,6-14.13,10.55-23.11,11.38-6,.55-11.78-1.44-17.1-4.57-3.28-1.93-5.74-5.19-9.67-6.08-8.36-10.18-8.72-21.57-5-33.55a18.31,18.31,0,0,1,4.72-7.85c8.42-8.28,16.37-17.09,25.17-24.93,12.4-11.06,23.36-23.58,35.67-34.67,10.22-9.22,19.79-19,29.38-28.88,5.8-5.37,11.72-10.63,17.4-16.13,14.06-13.6,27.95-27.37,42.07-40.91,2.6-2.48,2.59-4-.12-6.13-3.21-2.52-6.23-5.29-9.34-8a71.7,71.7,0,0,1-5.44-4.84c-2.82-3-4.92-3.51-8.3-.12-35.3,35.57-70.47,71.26-106.38,106.21-12.75,12.41-25,25.42-39,36.53-20.72,16.36-42.59,5.35-51.52-11.51-4.7-8.85-1.66-25.37,5.36-32.4,8.12-8.12,15.91-16.62,24.45-24.27,12.75-11.43,24.07-24.32,36.78-35.72,9.77-8.78,18.55-18.52,28.2-27.37,14.19-13,27.47-27,41.42-40.26,4.9-4.66,9.86-9.29,14.77-13.94,1.36-1.28,1.51-2.06,0-3.36-6.55-5.76-13-11.62-19.5-17.44-2.62-2.35-4.26-.51-6.07,1.31C470.05,487.43,431,526.82,391.5,565.67c-8.72,8.57-17.34,17.38-27.72,24.35a31.77,31.77,0,0,1-37.67-1.68c-15.76-12.65-16.82-33.06-2.36-47.52,9.42-9.42,18.55-19.14,28.31-28.19,25.72-23.88,49.48-49.72,75-73.82,11.45-10.84,22.47-22.1,33.74-33.12,2.19-2.14,3.12-2,5.49-.08,7,5.62,12.55,12.92,20.78,17.16,17.61,9.07,35,8,51.8-1.45,15.64-8.77,28.95-20.4,37-36.8,6.81-13.91,6.41-28.18.75-42.69-4.25-10.91-12.09-19-19.74-27.07-16.41-17.39-33.52-34.12-50-51.41-4.22-4.41-8-9.33-12.63-13.25-3.59-3-1.63-4.56.8-6.14,6.38-4.15,12.72-8.4,19.34-12.12,14.55-8.17,29.54-15.37,45.58-20.25a198.66,198.66,0,0,1,33.25-7c21.09-2.65,41.57.08,61.45,6.46,19.54,6.26,37.28,16.51,53.94,28.48,9.11,6.54,18.4,12.91,27,20.13C744.62,267.41,751.18,277.45,757.14,287.81Z"/><path class="cls-5" d="M231.1,500.14C216.45,479.52,202,458.73,187,438.39c-4.66-6.29-4.73-13.36-6.12-20.24-2.52-12.47-2.59-25.28-2.63-37.85a203.24,203.24,0,0,1,1.26-26.1c1.44-11.55,3.18-23,6.29-34.16,5.79-20.85,14.86-39.93,29.37-56.34,18.16-20.52,41.16-33.54,66-43.92,16.94-7.08,34.79-10.86,52.79-13.89,4.69-.78,9.52-.71,14.28-1.12a212.42,212.42,0,0,1,33.56.12c17.47,1.27,34.68,4.17,50.69,11.87,6.12,2.94,11.3,7.33,16.22,11.81,25.81,23.54,50.08,48.66,74.46,73.64,10.63,10.88,21.56,21.51,31.49,33.09,10.33,12,11.77,31.9,3.62,45-7.57,12.15-17.41,21.19-31.92,23.78a48.34,48.34,0,0,1-21.64-.68c-11.19-3.17-21.5-7.63-30.35-16.14-39.35-37.81-77.2-77.11-116.08-115.39-.69-.68-1.42-1.33-2.38-2.23-3.45,3.56-6.66,7.2-10.23,10.42-2.3,2.09-1.89,3.71-.35,5.84,11.08,15.36,22.06,30.79,33.21,46.11,1.82,2.49,2.34,4.06-.23,6.57-23.19,22.64-46,45.73-69.46,68.05-9.87,9.38-19.42,19.06-29.2,28.52-14.8,14.32-29.34,28.91-44.29,43.08-4.93,4.68-5.19,10-4.17,15.83.32,1.79.35,3.57.66,5.34Z"/><path class="cls-4" d="M444.52,387.93c-.48.54-.79.94-1.14,1.29-40.13,40.47-80.08,81.14-120.57,121.25-8.51,8.44-16.64,17.67-28,23-9.85,4.65-19.29,3.94-28.44-1.19-18.51-10.39-20-25.42-13-43a9.27,9.27,0,0,1,1.84-2.83c6.82-7.21,13.59-14.48,20.56-21.54,29.51-29.93,59.31-59.57,88.5-89.81,8.74-9.05,17.74-17.86,26.29-27.1,2.42-2.61,3.94-2.73,6.82-.2,9.44,8.3,19.33,16.1,28.94,24.22C432.52,377.2,438.47,382.61,444.52,387.93Z"/><path class="cls-3" d="M594.47,515.39c3.11,2.66,6.13,5.43,9.34,8,2.71,2.13,2.72,3.65.12,6.13-14.12,13.54-28,27.31-42.07,40.91-5.68,5.5-11.6,10.76-17.4,16.13.27-5.27,4.44-8.38,7.11-12.19,13.5-19.24,27.33-38.25,41.07-57.32A10.55,10.55,0,0,1,594.47,515.39Z"/><path class="cls-5" d="M231.83,499.39c.81.37,1.11.91.58,1.72l-1.31-1Z"/></g></g></svg>