<svg xmlns="http://www.w3.org/2000/svg" viewBox="0 0 936.82 936.82"><defs><style>.cls-1{fill:#f1f1f2;}.cls-2{fill:#09455d;}.cls-3{fill:#07384d;}.cls-4{fill:#edeff0;}.cls-5{fill:#f26f25;}</style></defs><g id="Layer_2" data-name="Layer 2"><g id="Layer_1-2" data-name="Layer 1"><path class="cls-1" d="M0,817V122.85c1.77-.19,1.83-1.47,2-2.87A118.31,118.31,0,0,1,7,98.75c8.51-25.46,22.3-47.39,42.72-65.22a147.36,147.36,0,0,1,56-31c1.32-.39,3.12-.46,3.21-2.54H840c1.43,3.3,4.85,3.05,7.48,3.91C866,10,882.81,19.12,897.32,32.08c13.52,12.08,25.41,25.63,33.87,42,1.53,3,1.51,7.37,5.63,8.82v775c-1.89.08-2.3,1.68-3,3-9.13,17.44-20.32,33.23-35.48,46.09-11.58,9.82-23.92,18.18-37.87,24.29-3.58,1.57-8.12,1.72-10.57,5.56h-751c-.08-2.09-1.91-2.07-3.21-2.56a144.44,144.44,0,0,1-61-43.09A143,143,0,0,1,2,819.84C1.81,818.44,1.77,817.16,0,817Zm847,49,0,0,1.09-1a99.39,99.39,0,0,0,24.34-23c7.25-9.56,13.29-20,13.34-32.15.3-69.48.15-139,.15-208.43,0-1.81.21-3.65-1.17-5.13.06-2,.16-4,.16-6q0-222.19,0-444.4c0-16.1-3.49-31.24-12-45.06C856.63,74.38,832.58,60.19,802,60.14q-327.55-.6-655.12-.11a82.11,82.11,0,0,0-18.9,2.4,81.22,81.22,0,0,0-44.4,27.21C71.68,103.78,64.11,120,64.09,138.4q-.39,331.55-.16,663.11a63.23,63.23,0,0,0,2.78,16.79c4.75,17.24,13.82,31.68,27.93,43,14.6,11.64,31.18,18.45,49.71,18.51,94.37.29,188.74.13,283.12.12,1.66,0,3.32-.1,5-.16,2,.06,4,.16,6,.16H811.25c10,0,18.15-5.1,26.71-9.15.87.2,1.73.35,2.08-.8a2.83,2.83,0,0,0,.9-.22c.7.2.94-.23,1.1-.79a2.37,2.37,0,0,0,.9-.21c.7.2.94-.23,1.1-.78l1.9-1.21C846.63,866.93,846.87,866.51,847,866Z"/><path class="cls-2" d="M432.45,879.72c-1.66.06-3.32.16-5,.16-94.38,0-188.75.17-283.12-.12-18.53-.06-35.11-6.87-49.71-18.51-14.11-11.27-23.18-25.71-27.93-43a63.23,63.23,0,0,1-2.78-16.79q0-331.56.16-663.11c0-18.39,7.59-34.62,19.5-48.76A81.22,81.22,0,0,1,128,62.43a82.11,82.11,0,0,1,18.9-2.4q327.56-.2,655.12.11c30.57,0,54.62,14.24,70.89,40.65,8.51,13.82,12,29,12,45.06q0,222.2,0,444.4c0,2-.1,4-.16,6-5.8-8.08-11.65-16.11-17.38-24.24-16.33-23.16-32.57-46.4-48.94-69.54q-36.9-52.17-73.92-104.26c-16.36-23.14-32.56-46.4-48.94-69.54Q662.36,281.77,629.06,235c-3.85-5.44-3.74-5.52-8.67-1.27.31-3.08-.86-4.1-4.15-4.08q-46.9.21-93.82,0c-3.19,0-4.17.75-4.15,4.07q.24,31.93,0,63.88c0,3.27.87,4.14,4.12,4.11,14.3-.13,28.61,0,42.91.09l-15,18.64c-9.31.06-18.63.26-27.93.09-3.28-.07-4.16.86-4.12,4.12.15,12,0,23.94-.09,35.91-1.29.79-2,2.1-3,3.17-5.84,6.36-10.34,13.84-16.65,19.8-.05-19.61-.18-39.22-.09-58.83,0-3.23-.85-4.23-4.14-4.17-10.8.2-21.61.08-32.41.08-6.47,0-6.46,0-6.47,6.67q-.09,55.1-.17,110.18l-16.64,20c-.06-1.82-.16-3.65-.16-5.48,0-42.25-.06-84.51.07-126.76,0-3.63-.73-4.71-4.56-4.69q-67.14.22-134.26,0c-3.25,0-4.44,1-5.17,4.19-5.25,23.17-10.71,46.29-16.18,69.41s-11.11,46.52-16.7,69.77c-6.62,27.48-13.33,55-19.89,82.45-2.18,9.12-5.65,18.29-5.79,27.48-.63,41.92-.32,83.84-.22,125.77,0,5.26.88,10.5,7,12.65l1.1.8,0,0c.73,4.8,5.32,6.1,8.25,8.78,11.38,10.38,23,20.48,34.59,30.61,12.21,10.67,24.51,21.25,36.74,31.89,8.5,7.39,16.92,14.85,25.43,22.23q17.61,15.29,35.3,30.5c9.39,8.11,18.93,16.06,28.11,24.4C418.94,867.54,426.42,872.83,432.45,879.72Zm-44.94-578.1c15.63,0,31.26-.09,46.89.07,3.23,0,4.15-.8,4.13-4.09q-.22-31.92,0-63.85c0-3.26-.86-4.13-4.12-4.11q-46.89.18-93.78,0c-3.23,0-4.15.8-4.13,4.09q.22,31.92,0,63.85c0,3.26.85,4.15,4.11,4.12C356.24,301.53,371.88,301.62,387.51,301.62Z"/><path class="cls-3" d="M432.45,879.72c-6-6.89-13.51-12.18-20.25-18.3-9.18-8.34-18.72-16.29-28.11-24.4q-17.65-15.25-35.3-30.5c-8.51-7.38-16.93-14.84-25.43-22.23-12.23-10.64-24.53-21.22-36.74-31.89C275,742.27,263.41,732.17,252,721.79c-2.93-2.68-7.52-4-8.25-8.78,1.9.35,3.64,1.15,5.7,1.15q69.16-.12,138.33-.08c7.48,0,11.69-4.4,11.69-12V531.84c0-9.47,0-9.47,9.78-9.5h1a47.74,47.74,0,0,0,22-5.35c4.15-2.12,6.29-5.18,6.25-10.13-.15-16.48,0-32.95.09-49.43l16.64-20c.06,16.61.2,33.23.09,49.84,0,3.25.87,4.22,4.15,4.17,11-.2,21.95-.42,32.89.07,5.29.24,6.12-1.53,6.1-6.32-.16-33.9,0-67.8.05-101.69,6.31-6,10.81-13.44,16.65-19.8,1-1.07,1.7-2.38,3-3.17.06,1.83.16,3.66.16,5.48q0,70.39-.06,140.78c0,4.93,2,8,6.19,10.16a48.61,48.61,0,0,0,23,5.38c9.84,0,9.84,0,9.84,9.43,0,56.41.18,112.82-.2,169.23-.05,8.27,5.86,13.26,13.27,13.21,45.1-.24,90.19-.12,135.29-.12,9.56,0,15.43-5.92,15.43-15.62q0-61.66,0-123.31a17.57,17.57,0,0,0-.1-4c-2.83-11.77-5.76-23.51-8.63-35.27-5.08-20.86-10.21-41.71-15.18-62.6-7-29.38-13.81-58.79-20.77-88.17-4.69-19.8-9.67-39.53-14.1-59.38-.95-4.27-2.51-5.29-6.67-5.27-35.11.12-70.21,0-105.32-.07l15-18.64c16.8-.06,33.6-.24,50.39-.07,3.75,0,4.65-.91,4.63-4.63-.15-21.13,0-42.25.07-63.38,4.93-4.25,4.82-4.17,8.67,1.27q33.2,46.86,66.48,93.67c16.38,23.14,32.58,46.4,48.94,69.54q36.91,52.17,73.92,104.26C834.77,525.59,851,548.83,867.34,572c5.73,8.13,11.58,16.16,17.38,24.24,1.38,1.48,1.17,3.32,1.17,5.13,0,69.47.15,138.95-.15,208.43,0,12.16-6.09,22.59-13.34,32.15a99.39,99.39,0,0,1-24.34,23L847,866l0,0-1.08.78-1.9,1.21-1.1.78a2.37,2.37,0,0,1-.9.21c-.36.27-.73.53-1.1.79a2.83,2.83,0,0,1-.9.22l-2.08.8c-8.56,4-16.76,9.15-26.71,9.15H438.43C436.43,879.88,434.44,879.78,432.45,879.72Z"/><path class="cls-2" d="M838,870.74l2.08-.8C839.69,871.09,838.83,870.94,838,870.74Z"/><path class="cls-2" d="M847,866l1.09-1Z"/><path class="cls-2" d="M845.94,866.73,847,866C846.87,866.51,846.63,866.93,845.94,866.73Z"/><path class="cls-2" d="M842.94,868.72l1.1-.78C843.88,868.49,843.64,868.92,842.94,868.72Z"/><path class="cls-2" d="M840.94,869.72c.37-.26.74-.52,1.1-.79C841.88,869.49,841.64,869.92,840.94,869.72Z"/><path class="cls-4" d="M438.62,457.43c-.06,16.48-.24,32.95-.09,49.43,0,4.95-2.1,8-6.25,10.13a47.74,47.74,0,0,1-22,5.35h-1c-9.78,0-9.78,0-9.78,9.5V702.12c0,7.56-4.21,12-11.69,12q-69.17.06-138.33.08c-2.06,0-3.8-.8-5.7-1.15l0,0c-.17-.53-.42-1-1.1-.8-6.07-2.15-6.93-7.39-7-12.65-.1-41.93-.41-83.85.22-125.77.14-9.19,3.61-18.36,5.79-27.48,6.56-27.5,13.27-55,19.89-82.45Q270,429,278.36,394.13c5.47-23.12,10.93-46.24,16.18-69.41.73-3.22,1.92-4.2,5.17-4.19q67.13.15,134.26,0c3.83,0,4.58,1.06,4.56,4.69-.13,42.25-.08,84.51-.07,126.76C438.46,453.78,438.56,455.61,438.62,457.43Z"/><path class="cls-4" d="M550.32,320.43c35.11.06,70.21.19,105.32.07,4.16,0,5.72,1,6.67,5.27,4.43,19.85,9.41,39.58,14.1,59.38,7,29.38,13.78,58.79,20.77,88.17,5,20.89,10.1,41.74,15.18,62.6,2.87,11.76,5.8,23.5,8.63,35.27a17.57,17.57,0,0,1,.1,4q0,61.65,0,123.31c0,9.7-5.87,15.62-15.43,15.62-45.1,0-90.19-.12-135.29.12-7.41,0-13.32-4.94-13.27-13.21.38-56.41.2-112.82.2-169.23,0-9.42,0-9.46-9.84-9.43a48.61,48.61,0,0,1-23-5.38c-4.15-2.15-6.2-5.23-6.19-10.16q.18-70.4.06-140.78c0-1.82-.1-3.65-.16-5.48.06-12,.24-23.94.09-35.91,0-3.26.84-4.19,4.12-4.12C531.69,320.69,541,320.49,550.32,320.43Z"/><path class="cls-5" d="M498.54,383.52c-.05,33.89-.21,67.79-.05,101.69,0,4.79-.81,6.56-6.1,6.32-10.94-.49-21.93-.27-32.89-.07-3.28.05-4.17-.92-4.15-4.17.11-16.61,0-33.23-.09-49.84q.09-55.09.17-110.18c0-6.67,0-6.67,6.47-6.67,10.8,0,21.61.12,32.41-.08,3.29-.06,4.15.94,4.14,4.17C498.36,344.3,498.49,363.91,498.54,383.52Z"/><path class="cls-4" d="M387.51,301.62c-15.63,0-31.27-.09-46.9.08-3.26,0-4.13-.86-4.11-4.12q.22-31.92,0-63.85c0-3.29.9-4.1,4.13-4.09q46.89.18,93.78,0c3.26,0,4.14.85,4.12,4.11q-.22,31.92,0,63.85c0,3.29-.9,4.13-4.13,4.09C418.77,301.53,403.14,301.62,387.51,301.62Z"/><path class="cls-4" d="M620.39,233.71c-.06,21.13-.22,42.25-.07,63.38,0,3.72-.88,4.67-4.63,4.63-16.79-.17-33.59,0-50.39.07-14.3-.06-28.61-.22-42.91-.09-3.25,0-4.14-.84-4.12-4.11q.22-31.93,0-63.88c0-3.32,1-4.08,4.15-4.07q46.92.18,93.82,0C619.53,229.61,620.7,230.63,620.39,233.71Z"/><path class="cls-3" d="M242.71,712.25c.68-.16.93.27,1.1.8Z"/></g></g></svg>